<?xml version="1.0" standalone="no"?>
<!DOCTYPE svg PUBLIC "-//W3C//DTD SVG 20010904//EN"
 "http://www.w3.org/TR/2001/REC-SVG-20010904/DTD/svg10.dtd">
<svg version="1.0" xmlns="http://www.w3.org/2000/svg"
 width="700.000000pt" height="700.000000pt" viewBox="0 0 700.000000 700.000000"
 preserveAspectRatio="xMidYMid meet">
<metadata>
Created by potrace 1.14, written by Peter Selinger 2001-2017
</metadata>
<g transform="translate(0.000000,700.000000) scale(0.100000,-0.100000)"
fill="#000000" stroke="none">
<path d="M952 6985 c-203 -44 -395 -210 -469 -405 -43 -112 -45 -139 -46 -537
-1 -313 -2 -353 -16 -354 -9 0 -67 -1 -130 -1 -128 -1 -172 -13 -222 -62 -88
-85 -88 -231 -1 -314 55 -51 96 -62 238 -62 l131 0 0 -765 c0 -421 -3 -765 -6
-765 -3 -1 -63 -1 -132 -1 -145 -1 -181 -12 -241 -74 -102 -106 -60 -292 80
-347 22 -9 73 -15 118 -16 43 0 102 -1 130 -1 l51 -1 0 -765 0 -765 -132 0
c-126 0 -136 -1 -186 -28 -77 -40 -114 -102 -114 -191 1 -74 16 -110 66 -159
44 -43 102 -60 206 -61 48 0 104 0 124 -1 l36 0 0 -347 c0 -373 3 -407 34
-508 52 -170 202 -335 366 -403 129 -54 -32 -52 2913 -49 l2725 2 73 27 c106
39 179 84 248 153 104 104 152 187 185 325 18 72 19 194 19 2990 0 2637 -2
2922 -16 2984 -58 250 -232 429 -484 497 -61 17 -217 18 -2775 18 -2260 -1
-2721 -3 -2773 -14z m5472 -439 c53 -20 109 -78 126 -132 19 -57 19 -5771 0
-5828 -18 -54 -73 -112 -127 -132 -43 -17 -196 -18 -2708 -18 l-2663 0 -53 27
c-56 27 -92 69 -113 130 -8 24 -11 771 -10 2913 1 1583 4 2886 6 2894 23 86
100 149 193 160 28 3 1232 5 2677 4 2460 -1 2629 -2 2672 -18z"/>
<path d="M2192 5097 c-52 -20 -97 -62 -122 -114 -29 -62 -24 -154 11 -205 13
-18 130 -140 261 -271 131 -131 238 -243 238 -250 0 -7 -11 -28 -23 -47 -99
-146 -182 -379 -202 -560 -7 -65 -7 -264 0 -300 2 -14 6 -41 9 -60 17 -138 97
-350 182 -482 l43 -67 -250 -251 c-170 -170 -257 -264 -269 -293 -62 -136 27
-289 176 -304 100 -11 116 1 399 283 l255 255 44 -31 c113 -77 292 -151 451
-186 108 -23 371 -28 479 -9 185 34 369 105 503 197 l42 28 251 -251 c171
-170 264 -256 293 -269 96 -44 216 -7 272 84 25 42 30 59 30 115 -1 41 -7 77
-17 96 -9 17 -129 143 -268 282 l-251 252 31 46 c82 119 164 330 194 496 13
77 16 362 3 424 -41 207 -98 353 -194 503 l-34 54 251 251 c139 138 259 265
267 282 20 37 25 126 11 168 -19 54 -57 95 -114 123 -46 22 -64 26 -108 21
-30 -3 -68 -13 -86 -22 -18 -9 -145 -129 -282 -266 l-249 -249 -42 28 c-136
92 -342 172 -512 199 -95 15 -374 9 -462 -10 -165 -35 -343 -108 -459 -188
l-44 -30 -252 251 c-138 138 -265 258 -281 267 -40 20 -134 26 -175 10z m1573
-741 c168 -23 341 -103 474 -221 90 -79 185 -223 230 -347 140 -382 -4 -810
-345 -1031 -198 -128 -416 -168 -661 -123 -18 3 -65 18 -105 32 -461 164 -696
665 -528 1125 139 383 530 619 935 565z"/>
<path d="M5847 4365 c-69 -18 -127 -72 -147 -140 -14 -44 -18 -1377 -5 -1437
24 -111 149 -182 273 -154 64 14 130 84 149 157 5 19 8 345 8 724 -1 761 1
730 -65 795 -57 55 -133 75 -213 55z"/>
</g>
</svg>
